<svg width="22" height="21" viewBox="0 0 22 21" fill="none" xmlns="http://www.w3.org/2000/svg">
<path d="M10.1822 1.2131C10.4821 0.292819 11.784 0.29282 12.0838 1.2131L13.8349 6.58749C13.969 6.99912 14.3528 7.2777 14.7857 7.2777H20.4465C21.4159 7.2777 21.8182 8.51873 21.0332 9.08749L16.4583 12.4021C16.1069 12.6568 15.9598 13.1091 16.0942 13.5217L17.8428 18.8884C18.1428 19.8092 17.0895 20.5762 16.3053 20.0079L11.7197 16.6856C11.3697 16.432 10.8963 16.432 10.5463 16.6856L5.96074 20.0079C5.17649 20.5762 4.1232 19.8092 4.42322 18.8884L6.17179 13.5217C6.30625 13.1091 6.15917 12.6568 5.80771 12.4021L1.23283 9.08749C0.447826 8.51873 0.850157 7.2777 1.81955 7.2777H7.48031C7.91323 7.2777 8.29699 6.99912 8.43111 6.58749L10.1822 1.2131Z" fill="black"/>
</svg>
